<svg width="128" height="128" viewBox="0 0 128 128" fill="none" xmlns="http://www.w3.org/2000/svg">
  <path d="M46 88C32 102 20 106 18 103C16 100 20 88 34 74C45 63 58 54 72 49C67 63 58 77 46 88Z" fill="#14161f"/>
  <path d="M40 67C53 37 82 19 107 21C109 47 91 76 61 89L40 67Z" fill="#14161f"/>
  <circle cx="78" cy="50" r="9" fill="white"/>
  <path d="M39 89C35 104 25 112 14 115C17 104 25 94 39 89Z" fill="#14161f"/>
  <path d="M25 24L30 34L40 39L30 44L25 54L20 44L10 39L20 34L25 24Z" fill="#14161f"/>
  <path d="M104 80L109 90L119 95L109 100L104 110L99 100L89 95L99 90L104 80Z" fill="#14161f"/>
</svg>