<svg xmlns="http://www.w3.org/2000/svg" xmlns:xlink="http://www.w3.org/1999/xlink" viewBox="0 0 1440 488" width="1440" height="488" preserveAspectRatio="xMidYMid meet" style="width: 100%; height: 100%;"><defs><clipPath id="hb_clip0"><rect width="1440" height="488" x="0" y="0"></rect></clipPath><clipPath id="hb_clip1"><path d="M0,0 L1895,0 L1895,642 L0,642z"></path></clipPath><g id="hb_dark_blob"><g transform="matrix(1.398550033569336,0,0,1.398550033569336,1543.030517578125,175.46128845214844)"><g opacity="1" transform="matrix(1,0,0,1,104.41500091552734,98.53800201416016)"><path fill="rgb(17,34,61)" fill-opacity="1" d=" M-55.334999084472656,77.27999877929688 C-49.48500061035156,93.11699676513672 -29.834999084472656,98.28900146484375 -16.94499969482422,87.38099670410156 C20.905000686645508,55.354000091552734 57.19499969482422,21.292999267578125 91.75499725341797,-14.692000389099121 C104.16500091552734,-27.613000869750977 98.8550033569336,-48.83599853515625 81.81500244140625,-54.36399841308594 C56.80500030517578,-62.47600173950195 31.434999465942383,-69.92900085449219 5.704999923706055,-76.69999694824219 C-20.024999618530273,-83.47100067138672 -45.78499984741211,-89.47100067138672 -71.53500366210938,-94.71499633789062 C-89.09500122070312,-98.28900146484375 -104.16500091552734,-82.43199920654297 -99.7249984741211,-65.07599639892578 C-87.34500122070312,-16.742000579833984 -72.51499938964844,30.773000717163086 -55.334999084472656,77.27999877929688z"></path></g></g></g><g id="hb_blue_blob"><g transform="matrix(1.398550033569336,0,0,1.398550033569336,113.2620849609375,201.18202209472656)"><g opacity="1" transform="matrix(1,0,0,1,78.64600372314453,118.47000122070312)"><path fill="rgb(52,128,241)" fill-opacity="1" d=" M-54.481998443603516,-107.72899627685547 C-41.152000427246094,-114.47000122070312 -22.788999557495117,-109.44400024414062 -3.4739999771118164,-94.52200317382812 C15.711999893188477,-79.70099639892578 35.22700119018555,-55.53300094604492 50.41699981689453,-25.49799919128418 C65.60700225830078,4.539000034332275 73.50700378417969,34.58000183105469 74.07499694824219,58.81700134277344 C74.64600372314453,83.21800231933594 67.81199645996094,100.98899841308594 54.483001708984375,107.72899627685547 C41.15299987792969,114.47000122070312 22.788999557495117,109.44400024414062 3.4739999771118164,94.52200317382812 C-15.711999893188477,79.69999694824219 -35.22600173950195,55.53200149536133 -50.41600036621094,25.496000289916992 C-65.60600280761719,-4.538000106811523 -73.50700378417969,-34.58100128173828 -74.07499694824219,-58.81800079345703 C-74.64600372314453,-83.21900177001953 -67.81099700927734,-100.98899841308594 -54.481998443603516,-107.72899627685547z"></path></g></g></g><mask id="hb_dark_mask" mask-type="alpha"><use xlink:href="#hb_dark_blob"></use></mask><mask id="hb_blue_mask" mask-type="alpha"><use xlink:href="#hb_blue_blob"></use></mask><clipPath id="hb_dark_clip2"><path fill="#ffffff" clip-rule="nonzero" d=" M1625.9100341796875,104.00399780273438 C1625.9100341796875,104.00399780273438 1184.375,369.7919921875 1184.375,369.7919921875 C1184.375,369.7919921875 1337.8699951171875,680.52001953125 1337.8699951171875,680.52001953125 C1337.8699951171875,680.52001953125 1745.2950439453125,683.72998046875 1745.2950439453125,683.72998046875 C1745.2950439453125,683.72998046875 1682.760009765625,593.2080078125 1682.760009765625,593.2080078125 C1682.760009765625,593.2080078125 1625.9100341796875,104.00399780273438 1625.9100341796875,104.00399780273438" fill-opacity="1"></path></clipPath><clipPath id="hb_blue_clip2"><path fill="#ffffff" clip-rule="nonzero" d=" M435.8500061035156,-23.753999710083008 C435.8500061035156,-23.753999710083008 125.06999969482422,138.02999877929688 125.06999969482422,138.02999877929688 C125.06999969482422,138.02999877929688 329.7300109863281,611.8259887695312 329.7300109863281,611.8259887695312 C329.7300109863281,611.8259887695312 740.9450073242188,536.7119750976562 740.9450073242188,536.7119750976562 C740.9450073242188,536.7119750976562 828.114990234375,222.1320037841797 828.114990234375,222.1320037841797 C828.114990234375,222.1320037841797 776.9500122070312,21.18600082397461 776.9500122070312,21.18600082397461 C776.9500122070312,21.18600082397461 435.8500061035156,-23.753999710083008 435.8500061035156,-23.753999710083008" fill-opacity="1"></path></clipPath></defs><g clip-path="url(#hb_clip0)"><g clip-path="url(#hb_clip1)" transform="matrix(0.7601100206375122,0,0,0.7601100206375122,-0.2042236328125,0.0046844482421875)">
  <!-- Dark navy blob (right side) -->
  <g transform="matrix(1.398550033569336,0,0,1.398550033569336,1543.030517578125,175.46128845214844)"><g opacity="1" transform="matrix(1,0,0,1,104.41500091552734,98.53800201416016)"><path fill="rgb(17,34,61)" fill-opacity="1" d=" M-55.334999084472656,77.27999877929688 C-49.48500061035156,93.11699676513672 -29.834999084472656,98.28900146484375 -16.94499969482422,87.38099670410156 C20.905000686645508,55.354000091552734 57.19499969482422,21.292999267578125 91.75499725341797,-14.692000389099121 C104.16500091552734,-27.613000869750977 98.8550033569336,-48.83599853515625 81.81500244140625,-54.36399841308594 C56.80500030517578,-62.47600173950195 31.434999465942383,-69.92900085449219 5.704999923706055,-76.69999694824219 C-20.024999618530273,-83.47100067138672 -45.78499984741211,-89.47100067138672 -71.53500366210938,-94.71499633789062 C-89.09500122070312,-98.28900146484375 -104.16500091552734,-82.43199920654297 -99.7249984741211,-65.07599639892578 C-87.34500122070312,-16.742000579833984 -72.51499938964844,30.773000717163086 -55.334999084472656,77.27999877929688z"></path></g></g>
  <!-- Dark blob stroke details -->
  <g transform="matrix(1.398550033569336,0,0,1.398550033569336,1543.030517578125,175.46128845214844)"><g opacity="1" transform="matrix(1.159999966621399,0,0,1.159999966621399,105.84500122070312,101.39900207519531)"><path stroke-linecap="round" stroke-linejoin="round" fill-opacity="0" stroke="rgb(17,34,61)" stroke-opacity="1" stroke-width="4" d=" M10.958000183105469,63.150001525878906 C38.81999969482422,38.32099914550781 65.7760009765625,12.357999801635742 91.75499725341797,-14.692000389099121 C104.16500091552734,-27.613000869750977 98.8550033569336,-48.83599853515625 81.81500244140625,-54.36399841308594 C56.80500030517578,-62.47600173950195 31.434999465942383,-69.92900085449219 5.704999923706055,-76.69999694824219 C-20.024999618530273,-83.47100067138672 -45.78499984741211,-89.47100067138672 -71.53500366210938,-94.71499633789062 C-89.09500122070312,-98.28900146484375 -104.16500091552734,-82.43199920654297 -99.7249984741211,-65.07599639892578 C-98.88099670410156,-61.78200149536133 -98.0260009765625,-58.49100112915039 -97.15899658203125,-55.20399856567383"></path></g></g>
  <!-- Dark blob inner illustration (cream colored) -->
  <g mask="url(#hb_dark_mask)">
    <g clip-path="url(#hb_clip1)">
      <g clip-path="url(#hb_dark_clip2)">
        <g transform="matrix(1.398550033569336,0,0,1.398550033569336,1329.5712890625,160.26101684570312)"><path fill="rgb(255,252,249)" fill-opacity="1" d=" M140.48,259.45 C140.97,265.94 140.78,271.14 139.14,273.24 C134.09,279.66 115.32,263.69 111.85,232.65 C108.39,201.6 119.79,173.22 118.09,169.51 C116.39,165.81 99.48,161.72 65.94,175.15 C32.39,188.57 6.43,197.47 5.36,185.33 C4,169.85 45.2,148.41 87.4,133.84 C129.59,119.28 153.77,86.48 193.19,69.23 C232.62,51.99 296.87,34.18 345.7,4 C360.01,32.48 390.98,87.22 373.21,99.51 C351.01,114.86 300.11,116.15 277.5,119.7 C254.89,123.24 256.66,132.93 242.8,156.09 C228.95,179.24 204.24,188.88 196.81,198.35 C189.38,207.82 192.13,213.77 192.54,225.08 C192.94,236.39 201.92,247.55 192.12,251.43 C182.31,255.31 174.31,240.17 171.8,229.99 C169.28,219.81 172.57,196.8 170.59,197.8 C168.6,198.8 162.92,212.99 159.71,220.21 C156.5,227.42 161.19,257.11 158.6,265.2 C156.01,273.29 144.19,266.73 140.48,259.45z"></path></g>
        <g transform="matrix(1.398550033569336,0,0,1.398550033569336,1454.06884765625,330.7554626464844)"><path fill="rgb(255,252,249)" fill-opacity="1" d=" M62.45,6.69 C59.3,19.45 50.78,41.97 36.33,53.38 C21.88,64.79 4,79.38 8.27,89.12 C12.54,98.86 21.61,98.94 45.3,81.56 C69,64.17 70.45,51.66 93.04,47.58 C115.62,43.5 131.3,27.97 131.34,4"></path></g>
      </g>
    </g>
  </g>
  <!-- Blue blob (left side) -->
  <g transform="matrix(1.398550033569336,0,0,1.398550033569336,113.2620849609375,201.18202209472656)"><g opacity="1" transform="matrix(1,0,0,1,78.64600372314453,118.47000122070312)"><path fill="rgb(52,128,241)" fill-opacity="1" d=" M-54.481998443603516,-107.72899627685547 C-41.152000427246094,-114.47000122070312 -22.788999557495117,-109.44400024414062 -3.4739999771118164,-94.52200317382812 C15.711999893188477,-79.70099639892578 35.22700119018555,-55.53300094604492 50.41699981689453,-25.49799919128418 C65.60700225830078,4.539000034332275 73.50700378417969,34.58000183105469 74.07499694824219,58.81700134277344 C74.64600372314453,83.21800231933594 67.81199645996094,100.98899841308594 54.483001708984375,107.72899627685547 C41.15299987792969,114.47000122070312 22.788999557495117,109.44400024414062 3.4739999771118164,94.52200317382812 C-15.711999893188477,79.69999694824219 -35.22600173950195,55.53200149536133 -50.41600036621094,25.496000289916992 C-65.60600280761719,-4.538000106811523 -73.50700378417969,-34.58100128173828 -74.07499694824219,-58.81800079345703 C-74.64600372314453,-83.21900177001953 -67.81099700927734,-100.98899841308594 -54.481998443603516,-107.72899627685547z"></path></g></g>
  <!-- Blue blob stroke outline -->
  <g transform="matrix(1.398550033569336,0,0,1.398550033569336,113.2620849609375,201.18202209472656)"><g opacity="1" transform="matrix(1,0,0,1,78.64600372314453,118.47000122070312)"><path stroke-linecap="butt" stroke-linejoin="miter" fill-opacity="0" stroke-miterlimit="4" stroke="rgb(52,128,241)" stroke-opacity="1" stroke-width="5" d=" M-54.481998443603516,-107.72899627685547 C-41.152000427246094,-114.47000122070312 -22.788999557495117,-109.44400024414062 -3.4739999771118164,-94.52200317382812 C15.711999893188477,-79.70099639892578 35.22700119018555,-55.53300094604492 50.41699981689453,-25.49799919128418 C65.60700225830078,4.539000034332275 73.50700378417969,34.58000183105469 74.07499694824219,58.81700134277344 C74.64600372314453,83.21800231933594 67.81199645996094,100.98899841308594 54.483001708984375,107.72899627685547 C41.15299987792969,114.47000122070312 22.788999557495117,109.44400024414062 3.4739999771118164,94.52200317382812 C-15.711999893188477,79.69999694824219 -35.22600173950195,55.53200149536133 -50.41600036621094,25.496000289916992 C-65.60600280761719,-4.538000106811523 -73.50700378417969,-34.58100128173828 -74.07499694824219,-58.81800079345703 C-74.64600372314453,-83.21900177001953 -67.81099700927734,-100.98899841308594 -54.481998443603516,-107.72899627685547z"></path></g></g>
  <!-- Blue blob inner illustration -->
  <g mask="url(#hb_blue_mask)">
    <g clip-path="url(#hb_clip1)">
      <g clip-path="url(#hb_blue_clip2)">
        <g transform="matrix(1.398550033569336,0,0,1.398550033569336,373.93115234375,296.1982421875)"><path fill="rgb(255,255,255)" fill-opacity="1" d=" M43.82,8.73 C1.85,13.32 4,37.12 15.91,40.65 C27.83,44.18 46.8,41.78 49.25,60.37 C51.71,78.95 55.77,112.64 67.28,85.35 C76.49,63.52 64.92,39.03 57.99,29.51 C59.2,29.87 65.16,32.09 77.93,40.35 C97.91,53.29 107.2,83.59 115.37,81.4 C122.22,79.56 124.08,67.25 120.35,61.33 C120.35,61.33 114.24,47.3 104.11,36.52 C93.98,25.74 85.8,4.14 43.82,8.73z"></path><g opacity="1" transform="matrix(1,0,0,1,64.03900146484375,58.319000244140625)"><path stroke-linecap="round" stroke-linejoin="round" fill-opacity="0" stroke="rgb(52,128,241)" stroke-opacity="1" stroke-width="4" d=" M-20.215999603271484,-49.5880012512207 C-62.19300079345703,-44.999000549316406 -60.03900146484375,-21.19499969482422 -48.125999450683594,-17.670000076293945 C-36.2140007019043,-14.144000053405762 -17.243999481201172,-16.540000915527344 -14.786999702453613,2.0460000038146973 C-12.329000473022461,20.631000518798828 -8.265999794006348,54.319000244140625 3.242000102996826,27.031999588012695 C12.449999809265137,5.202000141143799 0.8849999904632568,-19.288999557495117 -6.047999858856201,-28.805999755859375 C-4.836999893188477,-28.451000213623047 1.1239999532699585,-26.23200035095215 13.890999794006348,-17.96500015258789 C33.86899948120117,-5.0289998054504395 43.159000396728516,25.267000198364258 51.33300018310547,23.07699966430664 C58.17599868774414,21.243999481201172 60.03900146484375,8.928999900817871 56.314998626708984,3.0139999389648438 C56.314998626708984,3.0139999389648438 50.198001861572266,-11.020000457763672 40.06999969482422,-21.802000045776367 C29.94099998474121,-32.58399963378906 21.760000228881836,-54.176998138427734 -20.215999603271484,-49.5880012512207z"></path></g></g>
        <g transform="matrix(1.398550033569336,0,0,1.398550033569336,429.6256408691406,278.4394836425781)"><g opacity="1" transform="matrix(1,0,0,1,53.340999603271484,46.74300003051758)"><path fill="rgb(255,252,249)" fill-opacity="1" d=" M-17.198999404907227,-41.85200119018555 C-30.874000549316406,-40.959999084472656 -59.11399841308594,-24.709999084472656 -49.340999603271484,-25.31399917602539 C-39.569000244140625,-25.91900062561035 -5.734000205993652,-10.746999740600586 -5.734000205993652,-10.746999740600586 C-5.734000205993652,-10.746999740600586 19.777999877929688,17.405000686645508 19.777999877929688,17.405000686645508 C37.242000579833984,43.85100173950195 49.340999603271484,42.74399948120117 48.58599853515625,33.316001892089844 C47.8650016784668,24.31800079345703 24.26300048828125,-13.503000259399414 11.694999694824219,-26.92300033569336 C7.76200008392334,-32.270999908447266 -3.5239999294281006,-42.74300003051758 -17.198999404907227,-41.85200119018555z"></path></g></g>
        <g transform="matrix(1.398550033569336,0,0,1.398550033569336,79.53498840332031,247.7678680419922)"><g opacity="1" transform="matrix(1,0,0,1,188.93699645996094,102.8479995727539)"><path fill="rgb(255,252,249)" fill-opacity="1" d=" M-7.35699987411499,-92.41300201416016 C-48.76300048828125,-86.0250015258789 -138.9739990234375,-69.22599792480469 -169.96099853515625,-17.70199966430664 C-184.73199462890625,16.767000198364258 -139.14100646972656,98.802001953125 -117.37000274658203,76.4729995727539 C-102.10199737548828,28.83099937438965 -66.9469985961914,-9.02400016784668 -40.32600021362305,-10.795000076293945 C23.55500030517578,-6.8420000076293945 71.44599914550781,13.618000030517578 106.36100006103516,-0.20100000500679016 C117.2750015258789,-6.88700008392334 104.39900207519531,-14.911999702453613 86.30899810791016,-16.6299991607666 C64.26300048828125,-19.766000747680664 40.75,-35.275001525878906 43.65599822998047,-42.494998931884766 C46.5629997253418,-49.715999603271484 109.12899780273438,-67.36299896240234 123.36499786376953,-61.62300109863281 C139.69500732421875,-55.39500045776367 170.68699645996094,-27.141000747680664 177.70899963378906,-36.02399826049805 C184.73199462890625,-44.90700149536133 159.7969970703125,-73.31600189208984 139.70199584960938,-83.63999938964844 C116.48100280761719,-95.5009994506836 34.04800033569336,-98.802001953125 -7.35699987411499,-92.41300201416016z"></path><path stroke-linecap="round" stroke-linejoin="miter" fill-opacity="0" stroke-miterlimit="4" stroke="rgb(52,128,241)" stroke-opacity="1" stroke-width="4" d=" M-7.35699987411499,-92.41300201416016 C-48.76300048828125,-86.0250015258789 -138.9739990234375,-69.22599792480469 -169.96099853515625,-17.70199966430664 C-184.73199462890625,16.767000198364258 -139.14100646972656,98.802001953125 -117.37000274658203,76.4729995727539 C-102.10199737548828,28.83099937438965 -66.9469985961914,-9.02400016784668 -40.32600021362305,-10.795000076293945 C23.55500030517578,-6.8420000076293945 71.44599914550781,13.618000030517578 106.36100006103516,-0.20100000500679016 C117.2750015258789,-6.88700008392334 104.39900207519531,-14.911999702453613 86.30899810791016,-16.6299991607666 C64.26300048828125,-19.766000747680664 40.75,-35.275001525878906 43.65599822998047,-42.494998931884766 C46.5629997253418,-49.715999603271484 109.12899780273438,-67.36299896240234 123.36499786376953,-61.62300109863281 C139.69500732421875,-55.39500045776367 170.68699645996094,-27.141000747680664 177.70899963378906,-36.02399826049805 C184.73199462890625,-44.90700149356133 159.7969970703125,-73.31600189208984 139.70199584960938,-83.63999938964844 C116.48100280761719,-95.5009994506836 34.04800033569336,-98.802001953125 -7.35699987411499,-92.41300201416016z"></path></g></g>
      </g>
    </g>
  </g>
  <!-- Small blue sparkle decorations -->
  <g transform="matrix(1.398550033569336,0,0,1.398550033569336,1480.7530517578125,63.331153869628906)"><g opacity="1" transform="matrix(1,0,0,1,20.469999313354492,19.89299964904785)"><path stroke-linecap="butt" stroke-linejoin="round" fill-opacity="0" stroke="rgb(52,128,241)" stroke-opacity="1" stroke-width="4" d=" M16.469999313354492,13.42300033569336 C5.159999847412109,3.2320001125335693 9.789999961853027,-10.366999626159668 13.520000457763672,-15.892999649047852 C1.1200000047683716,-2.8540000915527344 -2.940000057220459,-6.315999984741211 -16.469999313354492,-12.753000259399414 C-4.400000095367432,1.690000057220459 -10.640000343322754,3.9860000610351562 -14.079999923706055,15.892999649047852 C-1.3200000524520874,5.383999824523926 3.2200000286102295,7.322999954223633 16.469999313354492,13.42300033569336z"></path></g></g>
  <g transform="matrix(1.398550033569336,0,0,1.398550033569336,54.490806579589844,467.6365661621094)"><g opacity="1" transform="matrix(1,0,0,1,14.552000045776367,14.65999984741211)"><path stroke-linecap="butt" stroke-linejoin="round" fill-opacity="0" stroke="rgb(52,128,241)" stroke-opacity="1" stroke-width="4" d=" M-10.552000045776367,-8.767999649047852 C-3.8919999599456787,-1.2020000219345093 -6.285999774932861,4.455999851226807 -8.84000015258789,10.65999984741211 C-0.2980000078678131,3.694000005722046 1.2009999752044678,4.998000144958496 10.552000045776367,8.048999786376953 C3.253000020980835,0.14800000190734863 4.099999904632568,-1.2300000190734863 7.289000034332275,-10.65999984741211 C-1.159999966621399,-4.986000061035156 -2.055999994277954,-4.952000141143799 -10.552000045776367,-8.767999649047852z"></path></g></g>
  <!-- Purple sparkle (right bottom) -->
  <g transform="matrix(1.398550033569336,0,0,1.398550033569336,1763.2742919921875,472.7692565917969)"><g opacity="1" transform="matrix(1,0,0,1,24.454999923706055,24.639999389648438)"><path fill="rgb(67,45,196)" fill-opacity="1" d=" M-4.235000133514404,20.639999389648438 C-0.375,5.913000106811523 13.835000038146973,3.7880001068115234 20.454999923706055,4.565999984741211 C3.184999942779541,-0.46799999475479126 4.394999980926514,-5.663000106811523 3.9049999713897705,-20.639999389648438 C-3.384999990463257,-3.2890000343322754 -8.295000076293945,-7.775000095367432 -20.454999923706055,-5.373000144958496 C-5.255000114440918,1.149999976158142 -4.894999980926514,6.065999984741211 -4.235000133514404,20.639999389648438z"></path></g></g>
  <!-- Purple sparkle (left top) -->
  <g transform="matrix(1.398550033569336,0,0,1.398550033569336,322.4586486816406,101.65421295166016)"><g opacity="1" transform="matrix(1,0,0,1,18.60099983215332,18.479999542236328)"><path fill="rgb(67,45,196)" fill-opacity="1" d=" M11.022000312805176,-14.479999542236328 C1.402999997138977,-5.206999778747559 -6.234000205993652,-8.03499984741211 -14.60099983215332,-11.043000221252441 C-4.863999843597412,-0.1509999930858612 -6.500999927520752,1.9140000343322754 -9.977999687194824,14.479999542236328 C0.04500000178813934,4.336999893188477 1.9220000505447388,5.375 14.60099983215332,9.034000396728516 C6.578999996185303,-1.815000057220459 6.480000019073486,-3 11.022000312805176,-14.479999542236328z"></path></g></g>
  <!-- Blue oval/circle stroke (center) -->
  <g transform="matrix(0.8910111784934998,-0.4539928734302521,0.4539928734302521,0.8910111784934998,824.1968994140625,-2.1307427883148193)"><g opacity="1" transform="matrix(1,0,0,1,-706.416015625,53.86399841308594)"><path stroke-linecap="round" stroke-linejoin="round" fill-opacity="0" stroke="rgb(52,128,241)" stroke-opacity="1" stroke-width="6" d=" M11.031999588012695,193.9550018310547 C7.408999919891357,194.74099731445312 3.7279999256134033,195.1439971923828 0,195.1439971923828 C-54.891422271728516,195.1439971923828 -99.45899963378906,107.6999740600586 -99.45899963378906,0 C-99.45899963378906,-107.6999740600586 -54.891422271728516,-195.1439971923828 0,-195.1439971923828 C0,-195.1439971923828 0,-195.1439971923828 0,-195.1439971923828 C14.718000411987305,-195.1439971923828 28.694000244140625,-188.85699462890625 41.268001556396484,-177.57899475097656"></path></g></g>
  <g transform="matrix(0.8910111784934998,-0.4539928734302521,0.4539928734302521,0.8910111784934998,824.1968994140625,-2.1307427883148193)"><g opacity="1" transform="matrix(1,0,0,1,-706.416015625,53.86399841308594)"><path stroke-linecap="round" stroke-linejoin="round" fill-opacity="0" stroke="rgb(52,128,241)" stroke-opacity="1" stroke-width="6" d=" M56.74399948120117,-160.24600219726562 C81.66300201416016,-126.19499969482422 98.28099822998047,-70.35199737548828 99.39900207519531,-6.841000080108643"></path></g></g>
  <!-- Blue filled oval -->
  <g transform="matrix(1.398550033569336,0,0,1.398550033569336,907.9140625,472.4266052246094)"><g opacity="1" transform="matrix(1,0,0,1,42.555999755859375,34.861000061035156)"><path fill="rgb(52,128,241)" fill-opacity="1" d=" M1.8480000495910645,-8.87399959564209 C8.595999717712402,-24.714000701904297 20.676000595092773,-34.611000061035156 29.82200050354004,-31.30900001525879 C39.582000732421875,-27.783000946044922 42.305999755859375,-10.564000129699707 35.90599822998047,7.1529998779296875 C30.573999404907227,21.917999267578125 20.59000015258789,32.36800003051758 11.76200008392334,33.402000427246094 C2.9749999046325684,34.611000061035156 -11.189000129699707,27.23900032043457 -22.93400001525879,14.652999877929688 C-37.029998779296875,-0.45100000500679016 -42.305999755859375,-17.347000122070312 -34.71900177001953,-23.082000732421875 C-27.607999801635742,-28.457000732421875 -11.722999572753906,-22.125 1.8480000495910645,-8.87399959564209z"></path></g></g>
</g></g></svg>
